# Wavefront OBJ exported by MilkShape 3D

mtllib redead.mtl

v 12.076030 101.302910 -9.269263
v 1.284414 97.976753 -12.987244
v -0.840470 111.102333 -10.840332
v -2.961880 97.976753 -12.990747
v -13.759607 101.302910 -9.290637
v 11.936549 114.044701 4.620422
v -16.303493 106.138649 4.597063
v -13.643181 114.044701 4.599243
v 14.596863 106.138649 4.622600
v 0.032586 92.008278 7.910434
v 11.936549 114.044701 4.620422
v -0.858063 109.388054 10.339736
v -1.953253 92.012932 7.908895
v -13.643181 114.044701 4.599243
v -16.303493 106.138649 4.597063
v 14.596863 106.138649 4.622600
v -1.953253 92.012932 7.908895
v -2.961880 97.976753 -12.990747
v 0.032586 92.008278 7.910434
v 0.032586 92.008278 7.910434
v 1.284414 97.976753 -12.987244
v -1.672997 147.145554 34.079388
v 11.406827 163.487900 48.966209
v -0.900478 162.040039 52.773720
v -12.638530 163.487900 48.966209
v -16.894257 154.427780 33.830772
v -11.533668 144.633606 20.815674
v -0.866454 140.893005 20.960402
v 14.212386 152.990234 32.403210
v 9.543647 144.633606 20.815674
v 14.212386 152.990234 32.403210
v 9.219436 174.142593 33.134087
v 11.406827 163.487900 48.966209
v -0.900478 162.040039 52.773720
v -12.638530 163.487900 48.966209
v -11.533668 144.633606 20.815674
v -16.894257 154.427780 33.830772
v -0.863449 164.732040 12.632502
v 9.543647 144.633606 20.815674
v -0.866454 140.893005 20.960402
v -0.866708 171.134598 14.706400
v -10.990429 175.795746 34.788662
v -27.925900 88.828796 11.039528
v -21.145294 74.833420 15.375240
v -24.905392 87.853996 6.340584
v -28.782299 72.677139 2.233480
v -28.501183 87.319626 4.125641
v -31.099979 88.189636 8.632420
v -32.758842 70.688133 13.524574
v -19.764347 61.965542 8.510508
v -30.604366 119.057190 -3.736510
v -34.283951 122.195930 4.725877
v -30.554482 123.854645 -3.908621
v -31.099979 88.189636 8.632420
v -26.942539 127.013008 8.464884
v -27.925900 88.828796 11.039528
v -23.735420 121.837967 -1.037815
v -24.905392 87.853996 6.340584
v -28.501183 87.319626 4.125641
v -24.959732 144.174255 15.856840
v -19.695591 151.276169 22.501583
v -29.509211 148.663849 19.671467
v -26.942539 127.013008 8.464884
v -21.344154 161.856796 14.145905
v -35.764084 149.519836 9.965883
v -23.735420 121.837967 -1.037815
v -30.554482 123.854645 -3.908621
v -26.476591 146.877975 1.874157
v -34.283951 122.195930 4.725877
v 25.227127 87.853996 6.340584
v 29.393528 87.319626 4.125641
v 31.036594 72.677383 2.235553
v 20.070927 74.833420 15.375240
v 32.396835 70.688133 13.524574
v 30.843784 88.189636 8.632420
v 27.040440 88.828796 11.039528
v 21.181828 61.965542 8.510508
v 25.227127 87.853996 6.340584
v 23.681107 121.838120 -1.038515
v 29.393528 87.319626 4.125641
v 24.672260 127.013008 8.464884
v 27.040440 88.828796 11.039528
v 31.342747 119.057190 -3.736509
v 32.751343 122.195930 4.725877
v 31.279766 123.854645 -3.908621
v 30.843784 88.189636 8.632420
v 17.957844 151.276169 22.501583
v 23.232597 144.174255 15.856840
v 26.585001 148.663849 19.671467
v 24.672260 127.013008 8.464884
v 19.634781 161.856796 14.145905
v 24.785284 146.877975 1.874157
v 23.681107 121.838120 -1.038515
v 33.893188 149.519836 9.965883
v 31.279766 123.854645 -3.908621
v 32.751343 122.195930 4.725877
v -15.615129 125.554810 3.276697
v -0.840470 111.102333 -10.840332
v -13.643181 114.044701 4.599243
v 14.134153 125.554810 3.276697
v 11.936549 114.044701 4.620422
v -0.835647 145.840057 -6.816791
v -0.863325 120.728813 8.165461
v 11.936549 114.044701 4.620422
v 14.134153 125.554810 3.276697
v -13.643181 114.044701 4.599243
v -0.858063 109.388054 10.339736
v -15.615129 125.554810 3.276697
v -26.476591 146.877975 1.874157
v -0.457043 163.565659 3.063382
v 24.785284 146.877975 1.874157
v -21.344154 161.856796 14.145905
v -0.845429 164.393600 7.245538
v 19.634781 161.856796 14.145905
v 10.818527 132.592453 18.694403
v -10.514976 132.592453 18.676825
v 23.232597 144.174255 15.856840
v 17.957844 151.276169 22.501583
v -24.959732 144.174255 15.856840
v -19.695591 151.276169 22.501583
v -8.311065 151.099472 21.284103
v 6.576270 151.099472 21.284103
v 19.634781 161.856796 14.145905
v -0.845429 164.393600 7.245538
v 24.785284 146.877975 1.874157
v -21.344154 161.856796 14.145905
v -26.476591 146.877975 1.874157
v -15.681303 1.089563 19.556824
v -13.212036 11.377605 -3.423272
v -21.323742 1.233405 13.921553
v -7.522178 12.033710 -8.653075
v -6.135352 1.418158 -10.969250
v -3.615482 11.887257 -5.213104
v -7.276894 1.186664 17.444569
v -9.682807 10.915430 1.718577
v -11.083603 44.853939 12.119641
v -11.174196 50.637688 12.621081
v -16.329044 52.235626 3.317728
v -3.318835 52.235626 3.317728
v -7.522178 12.033710 -8.653075
v -9.840536 56.206100 1.135785
v -3.615482 11.887257 -5.213104
v -13.212036 11.377605 -3.423272
v -9.682807 10.915430 1.718577
v -10.517471 86.520065 10.890507
v -1.953253 92.012932 7.908895
v -16.303493 106.138649 4.597063
v -19.626389 90.164581 -2.908921
v -13.759607 101.302910 -9.290637
v -1.953253 92.012932 -8.162981
v -2.961880 97.976753 -12.990747
v -2.782665 85.291672 7.172402
v -9.840536 56.206100 1.135785
v -3.318835 52.235626 3.317728
v -16.329044 52.235626 3.317728
v -11.174196 50.637688 12.621081
v 4.273499 1.418158 -10.969250
v 3.515311 1.186664 17.444569
v 1.442669 11.887257 -5.213104
v 11.248985 11.377605 -3.423272
v 5.150073 12.033710 -8.653075
v 17.712101 1.233405 13.921553
v 11.798918 1.089563 19.556824
v 8.335170 10.915430 1.718577
v 5.150073 12.033710 -8.653075
v 14.777850 52.235626 3.317728
v 11.248985 11.377605 -3.423272
v 1.732857 52.235626 3.317728
v 1.442669 11.887257 -5.213104
v 10.549895 45.000519 12.092170
v 8.034273 56.206100 1.135785
v 10.617876 50.637688 12.621081
v 8.335170 10.915430 1.718577
v 17.589775 90.164581 -2.908922
v 14.596863 106.138649 4.622600
v 9.983427 86.520065 10.890507
v 1.822325 85.291672 7.172402
v 1.284414 97.976753 -12.987244
v 0.032586 92.008278 -8.162981
v 12.076030 101.302910 -9.269263
v 0.032586 92.008278 7.910434
v 10.617876 50.637688 12.621081
v 14.777850 52.235626 3.317728
v 1.732857 52.235626 3.317728
v 8.034273 56.206100 1.135785
# 185 vertices

vt 0.897240 0.949810
vt 0.927392 0.889583
vt 0.809557 0.877651
vt 0.927392 0.865909
vt 0.897240 0.805681
vt 0.783044 0.948863
vt 0.854091 0.791666
vt 0.783044 0.806439
vt 0.854091 0.963636
vt 0.588962 0.301895
vt 0.537669 0.432388
vt 0.593294 0.404926
vt 0.597453 0.301895
vt 0.648746 0.432388
vt 0.660183 0.385608
vt 0.526232 0.385608
vt 0.000000 0.000000
vt 1.000000 0.000000
vt 1.000000 1.000000
vt 0.195383 0.296075
vt 0.046575 0.073537
vt 0.179964 0.036364
vt 0.308057 0.036819
vt 0.359248 0.221835
vt 0.305852 0.409435
vt 0.190375 0.448048
vt 0.021552 0.285023
vt 0.076266 0.430918
vt 0.961153 0.581339
vt 0.876148 0.522023
vt 0.966729 0.616382
vt 0.925894 0.689409
vt 0.855903 0.718938
vt 0.833383 0.678730
vt 0.818302 0.713779
vt 0.796340 0.522172
vt 0.930455 0.588901
vt 0.894317 0.648648
vt 0.783127 0.505116
vt 0.783044 0.608180
vt 0.098472 0.521018
vt 0.033315 0.668901
vt 0.125145 0.538900
vt 0.180656 0.758172
vt 0.160598 0.562668
vt 0.134091 0.544898
vt 0.103693 0.760260
vt 0.087500 0.852417
vt 0.834510 0.157387
vt 0.830005 0.050758
vt 0.830005 0.156819
vt 0.903998 0.098106
vt 0.815448 0.124243
vt 0.903998 0.125569
vt 0.829831 0.233902
vt 0.903998 0.198675
vt 0.903998 0.164016
vt 0.829485 0.203789
vt 0.818221 0.120644
vt 0.835376 0.068750
vt 0.885456 0.142804
vt 0.821860 0.054924
vt 0.839882 0.060417
vt 0.900186 0.206819
vt 0.900186 0.161932
vt 0.832777 0.224243
vt 0.900186 0.100000
vt 0.154075 0.592369
vt 0.117959 0.568156
vt 0.051545 0.696575
vt 0.199314 0.804754
vt 0.116395 0.791161
vt 0.144963 0.586260
vt 0.181245 0.610584
vt 0.106992 0.882720
vt 0.906078 0.204357
vt 0.835550 0.241668
vt 0.906078 0.167804
vt 0.821860 0.125569
vt 0.906078 0.126894
vt 0.840055 0.160607
vt 0.835550 0.047727
vt 0.835550 0.160039
vt 0.906078 0.097917
vt 0.819954 0.116667
vt 0.832257 0.218372
vt 0.838842 0.053031
vt 0.893774 0.143751
vt 0.823939 0.036364
vt 0.835896 0.243562
vt 0.910063 0.221971
vt 0.843694 0.043182
vt 0.909890 0.167046
vt 0.910063 0.091288
vt 0.657411 0.763261
vt 0.577005 0.922163
vt 0.646667 0.865723
vt 0.495387 0.763261
vt 0.507344 0.865723
vt 0.577005 0.692806
vt 0.593121 0.309471
vt 0.515488 0.401251
vt 0.502145 0.303979
vt 0.670927 0.401251
vt 0.593121 0.421137
vt 0.682884 0.303979
vt 0.716501 0.646972
vt 0.574926 0.545646
vt 0.437509 0.646972
vt 0.688602 0.505116
vt 0.577005 0.521782
vt 0.465408 0.505116
vt 0.522073 0.189205
vt 0.651865 0.189205
vt 0.446867 0.133523
vt 0.478925 0.059849
vt 0.739549 0.133523
vt 0.707491 0.059849
vt 0.638349 0.066667
vt 0.548066 0.066667
vt 0.468701 0.036364
vt 0.593121 0.053788
vt 0.437509 0.183523
vt 0.717714 0.036364
vt 0.748906 0.183523
vt 0.106633 0.845236
vt 0.101678 0.573089
vt 0.033271 0.746725
vt 0.167814 0.543536
vt 0.176175 0.521407
vt 0.214074 0.605255
vt 0.202333 0.864624
vt 0.144035 0.653587
vt 0.829138 0.044318
vt 0.818914 0.057765
vt 0.821167 0.176326
vt 0.821860 0.216478
vt 0.893254 0.223486
vt 0.815795 0.246971
vt 0.892388 0.185417
vt 0.891521 0.131629
vt 0.890308 0.066667
vt 0.847333 0.224812
vt 0.839189 0.197539
vt 0.815968 0.208713
vt 0.838149 0.138826
vt 0.816142 0.094887
vt 0.832604 0.075947
vt 0.819261 0.059470
vt 0.847680 0.183334
vt 0.892388 0.103599
vt 0.898800 0.105114
vt 0.900359 0.125379
vt 0.904518 0.185039
vt 0.150707 0.520775
vt 0.050451 0.761215
vt 0.102864 0.543971
vt 0.193579 0.645399
vt 0.153483 0.548786
vt 0.202611 0.857480
vt 0.125556 0.853762
vt 0.143682 0.661274
vt 0.893254 0.218562
vt 0.821167 0.171402
vt 0.891521 0.126705
vt 0.821860 0.211554
vt 0.892388 0.180683
vt 0.829138 0.039394
vt 0.815795 0.242236
vt 0.818914 0.052841
vt 0.890308 0.061743
# 171 texture coordinates

vn 0.631622 0.414273 -0.655310
vn 0.133853 0.181037 -0.974325
vn 0.000755 0.409903 -0.912129
vn -0.132243 0.181037 -0.974545
vn -0.630536 0.414273 -0.656356
vn 0.757771 0.484616 -0.436956
vn -0.911541 0.306801 -0.273801
vn -0.757046 0.484614 -0.438212
vn 0.911993 0.306802 -0.272289
vn 0.205332 -0.062806 0.976675
vn 0.306149 -0.023293 0.951699
vn -0.000461 -0.120971 0.992656
vn -0.207258 -0.060887 0.976390
vn -0.307851 -0.020451 0.951215
vn -0.170731 0.057178 0.983657
vn 0.167313 0.056570 0.984280
vn -0.002041 -0.961639 -0.274310
vn -0.000907 -0.961598 -0.274461
vn 0.000227 -0.961555 -0.274611
vn -0.011049 -0.846098 0.532913
vn 0.306380 -0.763314 0.568755
vn -0.007865 -0.781929 0.623318
vn -0.327833 -0.746924 0.578473
vn -0.380645 -0.778589 0.498907
vn -0.351316 -0.836926 0.419681
vn 0.001301 -0.902684 0.430302
vn 0.345203 -0.795338 0.498270
vn 0.330682 -0.835965 0.437965
vn 0.910965 0.231625 -0.341310
vn 0.750961 0.638713 -0.167640
vn 0.324101 0.820985 0.470045
vn 0.000000 0.934702 0.355434
vn -0.391908 0.796846 0.459830
vn -0.320204 -0.072004 -0.944608
vn -0.912959 0.258840 -0.315448
vn 0.000477 0.214242 -0.976780
vn 0.324467 -0.072865 -0.943086
vn 0.000000 -0.038662 -0.999252
vn 0.029290 0.743270 -0.668350
vn -0.608265 0.792961 0.035027
vn -0.027320 0.414015 0.909860
vn 0.859555 0.187580 0.475372
vn 0.894301 0.211184 -0.394495
vn -0.082050 -0.087250 -0.992802
vn -0.243559 0.128897 -0.961283
vn -0.989144 0.141028 -0.041293
vn -0.756577 -0.233918 0.610634
vn 0.231171 -0.972284 0.034978
vn -0.527081 -0.147398 -0.836935
vn -0.998084 -0.032993 0.052339
vn -0.377507 -0.029279 -0.925544
vn -0.958465 -0.058556 0.279135
vn -0.073408 0.060975 0.995436
vn 0.583963 0.074767 0.808330
vn 0.865027 -0.094614 -0.492724
vn 0.974870 -0.078802 -0.208370
vn 0.041363 -0.249716 -0.967435
vn 0.674225 -0.396116 0.623308
vn -0.256223 -0.080983 0.963220
vn -0.371211 -0.119370 0.920844
vn 0.385141 -0.435413 0.813684
vn -0.591609 0.767447 0.247029
vn -0.898508 0.382717 -0.214966
vn 0.973005 -0.008996 -0.230607
vn -0.456472 0.198724 -0.867261
vn 0.166828 0.449301 -0.877666
vn -0.851406 -0.264766 0.452777
vn -0.838019 0.171328 -0.518046
vn 0.357114 0.158889 -0.920448
vn 0.220080 -0.105676 -0.969741
vn -0.925603 0.156869 0.344458
vn 0.701977 -0.199861 0.683581
vn 0.972476 0.186698 0.139405
vn -0.039753 0.433940 0.900065
vn -0.090829 -0.995245 0.035180
vn -0.982605 -0.106422 -0.152187
vn -0.644526 -0.135662 -0.752451
vn 0.430033 -0.234976 -0.871698
vn -0.731276 0.017415 0.681859
vn 0.034692 0.057859 0.997722
vn 0.498117 -0.129738 -0.857349
vn 0.960740 -0.004543 0.277414
vn 0.502142 -0.024420 -0.864441
vn 0.938768 -0.013107 0.344300
vn 0.286091 -0.088809 0.954078
vn -0.755345 -0.376124 0.536643
vn 0.344633 -0.125335 0.930333
vn -0.504984 -0.409224 0.759952
vn 0.609055 0.745785 0.269919
vn -0.156482 0.436129 -0.886174
vn -0.942870 0.006385 -0.333099
vn 0.915361 0.383803 -0.121692
vn 0.526075 0.207607 -0.824708
vn 0.799749 -0.259268 0.541463
vn -0.600727 -0.116754 -0.790882
vn -0.001879 -0.088286 -0.996093
vn -0.772511 -0.201540 -0.602169
vn 0.599438 -0.121106 -0.791206
vn 0.772336 -0.217150 -0.596945
vn -0.000508 0.131524 -0.991313
vn -0.002767 -0.308308 0.951283
vn 0.321066 0.116349 0.939883
vn 0.659591 -0.525407 0.537483
vn -0.323573 0.117754 0.938847
vn -0.000901 0.188292 0.982113
vn -0.640422 -0.521872 0.563480
vn -0.356739 0.330928 -0.873627
vn 0.000780 0.781534 -0.623862
vn 0.361740 0.328268 -0.872573
vn -0.303561 0.844109 -0.441962
vn -0.004959 0.980862 -0.194642
vn 0.306258 0.852415 -0.423786
vn 0.235898 -0.457681 0.857252
vn -0.254160 -0.504780 0.824985
vn 0.743064 -0.506536 0.437352
vn 0.122931 0.043209 0.991474
vn -0.707444 -0.532751 0.464434
vn -0.106756 0.032251 0.993762
vn 0.065606 0.295517 0.953082
vn -0.078629 0.382354 0.920664
vn -0.126359 0.650404 0.749005
vn -0.000010 0.697005 0.717067
vn 0.894870 -0.446134 0.013104
vn 0.126336 0.650199 0.749187
vn -0.891265 -0.453394 0.009016
vn -0.037145 0.811861 0.582668
vn -0.798221 0.570134 -0.194398
vn -0.654273 -0.748419 -0.108614
vn -0.022296 0.210338 -0.977375
vn 0.043388 -0.508868 -0.859750
vn 0.815184 0.569256 0.106876
vn 0.599536 -0.761926 0.245002
vn 0.070066 0.863612 0.499265
vn -0.080904 -0.215148 0.973225
vn -0.097947 -0.087481 0.991339
vn -0.968877 0.017891 -0.246897
vn 0.986953 0.072383 -0.143819
vn -0.001894 0.186027 -0.982543
vn 0.009205 0.216808 -0.976171
vn 0.974289 -0.063413 0.216195
vn -0.989209 -0.111120 0.095492
vn -0.050656 -0.294551 0.954292
vn -0.182475 0.047509 0.982062
vn 0.652018 0.030547 0.757588
vn -0.776868 0.273402 0.567210
vn -0.935392 -0.105790 -0.337416
vn -0.619425 -0.274889 -0.735357
vn 0.323437 -0.326572 -0.888110
vn 0.906030 -0.252033 -0.339983
vn 0.869060 -0.005190 0.494679
vn -0.111731 -0.218426 -0.969436
vn 0.970963 -0.196103 -0.137022
vn -0.907015 -0.143824 -0.395775
vn -0.189502 -0.002044 0.981878
vn -0.057295 -0.512990 -0.856480
vn -0.608016 -0.766182 0.208044
vn -0.792459 0.605698 0.071691
vn 0.824152 0.539726 -0.171666
vn -0.010406 0.213980 -0.976783
vn 0.649729 -0.757228 -0.066767
vn 0.113854 0.814354 0.569092
vn 0.050715 0.878910 0.474284
vn -0.020476 0.187796 -0.981995
vn 0.953000 0.018904 -0.302380
vn 0.993868 -0.108484 0.021385
vn -0.992351 0.073453 -0.099222
vn -0.959790 -0.061126 0.273983
vn 0.154749 -0.218923 0.963393
vn -0.025492 0.217873 -0.975644
vn 0.170000 -0.094088 0.980942
vn 0.122484 -0.296241 0.947227
vn 0.924333 -0.103080 -0.367400
vn 0.799187 0.267412 0.538322
vn 0.222848 0.037394 0.974136
vn -0.844655 -0.016638 0.535053
vn -0.900315 -0.290857 -0.323783
vn -0.323004 -0.317595 -0.891517
vn 0.622931 -0.287762 -0.727427
vn -0.643342 -0.052749 0.763760
vn 0.248164 -0.001092 0.968718
vn 0.888040 -0.137842 -0.438616
vn -0.978036 -0.192115 -0.080859
vn 0.109020 -0.217477 -0.969958
# 183 normals

g default
usemtl Material03
s 1
f 1/1/1 2/2/2 3/3/3
f 4/4/4 5/5/5 3/3/3
f 2/2/2 4/4/4 3/3/3
f 1/1/1 3/3/3 6/6/6
f 7/7/7 8/8/8 5/5/5
f 6/6/6 9/9/9 1/1/1
f 3/3/3 5/5/5 8/8/8
f 10/10/10 11/11/11 12/12/12
f 10/10/10 12/12/12 13/13/13
f 14/14/14 15/15/15 13/13/13
f 14/14/14 13/13/13 12/12/12
f 16/16/16 11/11/11 10/10/10
# 12 triangles in group

g Material.304
usemtl Material03
f 17/17/17 18/18/18 19/19/17
f 20/17/19 18/18/18 21/19/19
# 2 triangles in group

g Material.303_redead_g_redead_gr
usemtl Material03
f 22/20/20 23/21/21 24/22/22
f 22/20/20 25/23/23 26/24/24
f 27/25/25 28/26/26 22/20/20
f 22/20/20 24/22/22 25/23/23
f 22/20/20 29/27/27 23/21/21
f 26/24/24 27/25/25 22/20/20
f 29/27/27 22/20/20 30/28/28
f 30/28/28 22/20/20 28/26/26
f 31/29/29 32/30/30 33/31/31
f 34/32/32 33/31/31 35/33/33
f 36/34/34 37/35/35 38/36/36
f 36/34/34 39/37/37 40/38/38
f 39/37/37 38/36/36 31/29/29
f 32/30/30 38/36/36 41/39/39
f 41/39/39 42/40/40 32/30/30
f 38/36/36 42/40/40 41/39/39
f 33/31/31 42/40/40 35/33/33
f 42/40/40 37/35/35 35/33/33
f 38/36/36 39/37/37 36/34/34
f 32/30/30 42/40/40 33/31/31
f 42/40/40 38/36/36 37/35/35
f 38/36/36 32/30/30 31/29/29
f 43/41/41 44/42/42 45/43/43
f 46/44/44 45/43/43 44/42/42
f 47/45/45 46/44/44 48/46/46
f 48/46/46 46/44/44 49/47/47
f 48/46/46 49/47/47 43/41/41
f 43/41/41 49/47/47 44/42/42
f 45/43/43 46/44/44 47/45/45
f 46/44/44 44/42/42 50/48/48
f 49/47/47 50/48/48 44/42/42
f 50/48/48 49/47/47 46/44/44
f 51/49/49 52/50/50 53/51/51
f 52/50/50 54/52/52 55/53/53
f 56/54/54 55/53/53 54/52/52
f 56/54/54 57/55/55 55/53/53
f 57/55/55 56/54/54 58/56/56
f 57/55/55 51/49/49 53/51/51
f 51/49/49 57/55/55 59/57/57
f 59/57/57 57/55/55 58/56/56
f 52/50/50 51/49/49 54/52/52
f 54/52/52 51/49/49 59/57/57
f 60/58/58 61/59/59 62/60/60
f 60/58/58 62/60/60 63/61/61
f 62/60/60 64/62/62 65/63/63
f 66/64/64 60/58/58 63/61/61
f 67/65/65 68/66/66 66/64/64
f 68/66/66 60/58/58 66/64/64
f 64/62/62 68/66/66 65/63/63
f 61/59/59 64/62/62 62/60/60
f 67/65/65 65/63/63 68/66/66
f 65/63/63 69/67/67 62/60/60
f 65/63/63 67/65/65 69/67/67
f 62/60/60 69/67/67 63/61/61
f 70/68/68 71/69/69 72/70/70
f 72/70/70 73/71/71 70/68/68
f 74/72/72 72/70/70 75/73/73
f 75/73/73 72/70/70 71/69/69
f 76/74/74 74/72/72 75/73/73
f 76/74/74 70/68/68 73/71/71
f 73/71/71 74/72/72 76/74/74
f 73/71/71 72/70/70 77/75/75
f 74/72/72 77/75/75 72/70/70
f 77/75/75 74/72/72 73/71/71
f 78/76/76 79/77/77 80/78/78
f 79/77/77 78/76/76 81/79/79
f 78/76/76 82/80/80 81/79/79
f 79/77/77 83/81/81 80/78/78
f 81/79/79 82/80/80 84/82/82
f 84/82/82 83/81/81 85/83/83
f 80/78/78 84/82/82 86/84/84
f 82/80/80 86/84/84 84/82/82
f 83/81/81 79/77/77 85/83/83
f 83/81/81 84/82/82 80/78/78
f 87/85/85 88/86/86 89/87/87
f 88/86/86 90/88/88 89/87/87
f 91/89/89 87/85/85 89/87/87
f 92/90/90 93/91/91 88/86/86
f 92/90/90 91/89/89 94/92/92
f 91/89/89 89/87/87 94/92/92
f 93/91/91 92/90/90 95/93/93
f 90/88/88 88/86/86 93/91/91
f 94/92/92 95/93/93 92/90/90
f 96/94/94 89/87/87 90/88/88
f 95/93/93 94/92/92 96/94/94
f 94/92/92 89/87/87 96/94/94
f 97/95/95 98/96/96 99/97/97
f 98/96/96 100/98/98 101/99/99
f 98/96/96 97/95/95 102/100/100
f 100/98/98 98/96/96 102/100/100
f 103/101/101 104/102/102 105/103/103
f 103/101/101 106/104/104 107/105/105
f 106/104/104 103/101/101 108/106/106
f 104/102/102 103/101/101 107/105/105
f 109/107/107 110/108/108 102/100/100
f 102/100/100 110/108/108 111/109/109
f 102/100/100 111/109/109 100/98/98
f 97/95/95 109/107/107 102/100/100
f 110/108/108 112/110/110 113/111/111
f 114/112/112 110/108/108 113/111/111
f 109/107/107 112/110/110 110/108/108
f 114/112/112 111/109/109 110/108/108
f 115/113/113 116/114/114 103/101/101
f 103/101/101 116/114/114 108/106/106
f 117/115/115 118/116/116 115/113/113
f 119/117/117 108/106/106 116/114/114
f 120/118/118 116/114/114 121/119/119
f 120/118/118 119/117/117 116/114/114
f 122/120/120 123/121/121 124/122/122
f 125/123/123 117/115/115 105/103/103
f 126/124/124 121/119/119 124/122/122
f 124/122/122 121/119/119 122/120/120
f 118/116/116 123/121/121 122/120/120
f 126/124/124 120/118/118 121/119/119
f 127/125/125 108/106/106 119/117/117
f 115/113/113 118/116/116 122/120/120
f 116/114/114 115/113/113 121/119/119
f 121/119/119 115/113/113 122/120/120
f 103/101/101 105/103/103 115/113/113
f 115/113/113 105/103/103 117/115/115
f 128/126/126 129/127/127 130/128/128
f 131/129/129 132/130/130 129/127/127
f 132/130/130 130/128/128 129/127/127
f 131/129/129 133/131/131 132/130/130
f 132/130/130 133/131/131 134/132/132
f 133/131/131 135/133/133 128/126/126
f 128/126/126 134/132/132 133/131/131
f 135/133/133 129/127/127 128/126/126
f 130/128/128 134/132/132 128/126/126
f 134/132/132 130/128/128 132/130/130
f 136/134/134 137/135/135 138/136/136
f 136/134/134 139/137/137 137/135/135
f 139/137/137 140/138/138 141/139/139
f 138/136/136 141/139/139 140/138/138
f 136/134/134 142/140/140 139/137/137
f 138/136/136 140/138/138 143/141/141
f 140/138/138 139/137/137 142/140/140
f 143/141/141 136/134/134 138/136/136
f 136/134/134 144/142/142 142/140/140
f 136/134/134 143/141/141 144/142/142
f 145/143/143 146/144/144 147/145/145
f 148/146/146 147/145/145 149/147/147
f 147/145/145 148/146/146 145/143/143
f 149/147/147 150/148/148 148/146/146
f 150/148/148 151/149/149 152/150/150
f 151/149/149 150/148/148 149/147/147
f 146/144/144 145/143/143 152/150/150
f 152/150/150 151/149/149 146/144/144
f 153/151/151 150/148/148 154/152/152
f 150/148/148 153/151/151 148/146/146
f 148/146/146 153/151/151 155/153/153
f 154/152/152 150/148/148 152/150/150
f 148/146/146 156/154/154 145/143/143
f 154/152/152 152/150/150 156/154/154
f 156/154/154 148/146/146 155/153/153
f 152/150/150 145/143/143 156/154/154
f 157/155/155 158/156/156 159/157/157
f 160/158/158 157/155/155 161/159/159
f 157/155/155 160/158/158 162/160/160
f 157/155/155 159/157/157 161/159/159
f 163/161/161 162/160/160 160/158/158
f 163/161/161 159/157/157 158/156/156
f 159/157/157 163/161/161 164/162/162
f 164/162/162 163/161/161 160/158/158
f 158/156/156 162/160/160 163/161/161
f 162/160/160 158/156/156 157/155/155
f 165/163/163 166/164/164 167/165/165
f 168/166/166 165/163/163 169/167/167
f 169/167/167 170/168/168 168/166/166
f 168/166/166 171/169/169 165/163/163
f 172/170/170 168/166/166 170/168/168
f 172/170/170 170/168/168 166/164/164
f 166/164/164 165/163/163 171/169/169
f 167/165/165 166/164/164 170/168/168
f 170/168/168 169/167/167 173/171/171
f 173/171/171 167/165/165 170/168/168
f 174/146/172 175/145/173 176/143/174
f 177/150/175 178/149/176 179/148/177
f 178/149/176 180/147/178 179/148/177
f 181/144/179 176/143/174 175/145/173
f 179/148/177 180/147/178 174/146/172
f 175/145/173 174/146/172 180/147/178
f 176/143/174 181/144/179 177/150/175
f 177/150/175 181/144/179 178/149/176
f 174/146/172 176/143/174 182/154/180
f 177/150/175 182/154/180 176/143/174
f 183/153/181 174/146/172 182/154/180
f 179/148/177 184/152/182 177/150/175
f 185/151/183 174/146/172 183/153/181
f 174/146/172 185/151/183 179/148/177
f 182/154/180 177/150/175 184/152/182
f 184/152/182 179/148/177 185/151/183
# 192 triangles in group

# 206 triangles total

